<?xml version="1.0" encoding="UTF-8"?>
<svg width="22px" height="22px" viewBox="0 0 22 22" version="1.1" xmlns="http://www.w3.org/2000/svg" xmlns:xlink="http://www.w3.org/1999/xlink">
    <!-- Generator: Sketch 46.2 (44496) - http://www.bohemiancoding.com/sketch -->
    <title>审方</title>
    <desc>Created with Sketch.</desc>
    <defs>
        <polygon id="path-1" points="0.00130267109 0.00444655951 0.00130267109 15.9409381 15.0067492 15.9409381 15.0067492 0.00444655951 0.00130267109 0.00444655951"></polygon>
    </defs>
    <g id="Page-1" stroke="none" stroke-width="1" fill="none" fill-rule="evenodd">
        <g id="审核方式" transform="translate(3.000000, 3.000000)">
            <path d="M14.7894164,15.9631486 L7.74679347,15.9631486 C7.09953167,15.9631486 6.5730612,15.431137 6.5730612,14.7770628 L6.5730612,13.5908611 C6.5730612,12.9367869 7.09953167,12.4047753 7.74679347,12.4047753 L14.7894164,12.4047753 C15.4366782,12.4047753 15.9631486,12.9367869 15.9631486,13.5908611 L15.9631486,14.7770628 C15.9631486,15.431137 15.4366782,15.9631486 14.7894164,15.9631486 Z M14.7894164,14.7770628 L14.7894164,15.3700478 L14.7894164,14.7770628 Z M7.74679347,13.5908611 L7.74679347,14.7770628 L14.7887745,14.7770628 L14.7894164,13.5908611 L7.74679347,13.5908611 Z M11.2681049,9.43950284 C9.97346668,9.43950284 8.92064037,8.37557234 8.92064037,7.06733119 C8.92064037,5.75906688 9.97346668,4.69504371 11.2681049,4.69504371 C12.5627431,4.69504371 13.6155695,5.75906688 13.6155695,7.06733119 C13.6155695,8.37557234 12.5627431,9.43950284 11.2681049,9.43950284 Z M11.2681049,5.88124537 C10.6207514,5.88124537 10.0943726,6.41316429 10.0943726,7.06733119 C10.0943726,7.72140544 10.6207514,8.25341702 11.2681049,8.25341702 C11.9154584,8.25341702 12.4418372,7.72140544 12.4418372,7.06733119 C12.4418372,6.41316429 11.9154584,5.88124537 11.2681049,5.88124537 Z" id="Fill-1" fill="#0E80D3"></path>
            <g id="Group-5">
                <mask id="mask-2" fill="white">
                    <use xlink:href="#path-1"></use>
                </mask>
                <g id="Clip-3"></g>
                <path d="M14.4515074,13.6642329 L7.78074585,13.6642329 L10.1629622,9.59936606 C10.4658115,9.08254245 11.1794799,8.89696529 11.6880861,9.20891367 C11.8431039,9.30340306 11.9765192,9.43880079 12.0704852,9.60049993 L14.4515074,13.6642329 Z M9.74441396,12.5259359 L12.4878393,12.5259359 L11.1167128,10.1856005 L9.74441396,12.5259359 Z" id="Fill-2" fill="#0E80D3" mask="url(#mask-2)"></path>
                <path d="M2.77903165,2.85024464 L12.2277176,2.85024464 C12.5347354,2.85024464 12.7835673,3.10505474 12.7835673,3.41944873 C12.7835673,3.73373155 12.5347354,3.98854164 12.2277176,3.98854164 L2.77903165,3.98854164 C2.47210064,3.98854164 2.2231819,3.73373155 2.2231819,3.41944873 C2.2231819,3.10505474 2.47210064,2.85024464 2.77903165,2.85024464 Z M2.77903165,6.83433973 L7.22550401,6.83433973 C7.53243503,6.83433973 7.78124521,7.08914982 7.78124521,7.40354381 C7.78124521,7.71784887 7.53243503,7.97263673 7.22550401,7.97263673 L2.77903165,7.97263673 C2.47210064,7.97263673 2.2231819,7.71784887 2.2231819,7.40354381 C2.2231819,7.08914982 2.47210064,6.83433973 2.77903165,6.83433973 Z M3.89062261,15.9409381 L1.11159095,15.9409381 C0.497663778,15.9409381 0,15.4313179 0,14.8026411 L0,1.14274356 C0,0.514066744 0.497663778,0.00444655951 1.11159095,0.00444655951 L13.8951583,0.00444655951 C14.5090854,0.00444655951 15.0067492,0.514066744 15.0067492,1.14274356 L15.0067492,7.40354381 C15.0067492,7.71784887 14.7579173,7.97263673 14.451008,7.97263673 C14.1439902,7.97263673 13.8951583,7.71784887 13.8951583,7.40354381 L13.8951583,1.14274356 L1.11159095,1.14274356 L1.11159095,14.8026411 L3.89062261,14.8026411 C4.19764047,14.8026411 4.44647236,15.0574512 4.44647236,15.371734 C4.44647236,15.686128 4.19764047,15.9409381 3.89062261,15.9409381 Z M2.77903165,11.3876389 L6.11391306,11.3876389 C6.42082237,11.3876389 6.66965426,11.642449 6.66965426,11.956843 C6.66965426,12.2711258 6.42082237,12.5259359 6.11391306,12.5259359 L2.77903165,12.5259359 C2.47210064,12.5259359 2.2231819,12.2711258 2.2231819,11.956843 C2.2231819,11.642449 2.47210064,11.3876389 2.77903165,11.3876389 Z" id="Fill-4" fill="#0E80D3" mask="url(#mask-2)"></path>
            </g>
        </g>
    </g>
</svg>