<?xml version="1.0" encoding="UTF-8"?>
<svg width="22px" height="22px" viewBox="0 0 22 22" version="1.1" xmlns="http://www.w3.org/2000/svg" xmlns:xlink="http://www.w3.org/1999/xlink">
    <!-- Generator: Sketch 46.2 (44496) - http://www.bohemiancoding.com/sketch -->
    <title>合理用药</title>
    <desc>Created with Sketch.</desc>
    <defs>
        <polygon id="path-1" points="17.6641448 0.50039312 0.495243354 0.50039312 0.495243354 17.480756 17.6641448 17.480756 17.6641448 0.50039312"></polygon>
    </defs>
    <g id="Page-1" stroke="none" stroke-width="1" fill="none" fill-rule="evenodd">
        <g id="用药建议" transform="translate(2.000000, 2.000000)">
            <mask id="mask-2" fill="white">
                <use xlink:href="#path-1"></use>
            </mask>
            <g id="Clip-2"></g>
            <path d="M12.4302408,2.06557248 C13.4051319,2.06557248 14.3218685,2.44110074 15.0118309,3.12345946 C15.6987723,3.79891892 16.0839309,4.71805405 16.0815061,5.67599017 C16.0815061,6.64011794 15.7017933,7.54675184 15.0118309,8.22911057 L8.30889072,14.8576511 C7.62592437,15.5368452 6.69652727,15.9176216 5.72793658,15.9150074 C4.75926638,15.9177592 3.82986928,15.5370025 3.14690293,14.8576511 C2.45964356,14.1822113 2.07448497,13.262742 2.07728735,12.3045897 C2.07728735,11.3404423 2.45702006,10.4338084 3.14634643,9.752 L9.84882949,3.12345946 C10.5318753,2.44387224 11.4614911,2.06295823 12.4303203,2.06557248 L12.4302408,2.06557248 Z M12.4302408,1.00023587 C11.1755686,0.996855037 9.97163743,1.49018182 9.08711819,2.37024079 L2.384814,8.99884029 C1.4952465,9.87353317 0.996581491,11.0639607 1,12.3045897 C0.996581491,13.5452973 1.495167,14.7358624 2.384814,15.6107912 C3.26941274,16.4907125 4.47324453,16.9838821 5.72785708,16.980344 C6.98246962,16.9837248 8.18630141,16.4906339 9.07105915,15.6107912 L15.7733633,8.98234889 C16.6630103,8.10734152 17.1615958,6.91677641 17.1581773,5.67599017 C17.1616753,4.43528256 16.6628513,3.24477641 15.7729062,2.37024079 C14.8886255,1.49010319 13.6848533,0.996697789 12.4302408,1.00023587 Z" id="Fill-1" stroke="#0E80D3" stroke-width="0.2" fill="#0E80D3" mask="url(#mask-2)"></path>
            <path d="M12.0656821,3.2142935 C11.4190764,3.21285015 10.7987185,3.46059635 10.3426795,3.90230021 L8.79870313,5.39015201 C8.73011683,5.45485497 8.70281355,5.55011553 8.72733515,5.63957523 C8.75184248,5.72902119 8.82428034,5.79893392 8.91711721,5.82261848 C9.00989701,5.84630303 9.10875372,5.82014418 9.17601338,5.75410785 L10.7200325,4.2662423 C11.0762162,3.92136607 11.5606712,3.72794451 12.065625,3.72912667 C12.5736458,3.72912667 13.0510823,3.91985399 13.410547,4.2662423 C13.5148672,4.36676763 13.6839222,4.36676763 13.7882424,4.2662423 C13.8925484,4.16578571 13.8925484,4.00281179 13.7882424,3.90230021 C13.3324887,3.4604314 12.7121736,3.2126852 12.0656821,3.2142935 Z M12.3819461,11.157014 L6.3662779,5.36012294 C6.14348559,5.62929953 5.89232178,5.87531644 5.61669024,6.09439289 L11.5970665,11.8571429 C11.8321223,11.6017785 12.0939722,11.366002 12.3819461,11.156938 L12.3819461,11.157014 Z" id="Fill-4" stroke="#0E80D3" stroke-width="0.2" fill="#0E80D3" mask="url(#mask-2)"></path>
        </g>
    </g>
</svg>