<?xml version="1.0" encoding="UTF-8"?>
<svg width="22px" height="22px" viewBox="0 0 22 22" version="1.1" xmlns="http://www.w3.org/2000/svg" xmlns:xlink="http://www.w3.org/1999/xlink">
    <!-- Generator: Sketch 46.2 (44496) - http://www.bohemiancoding.com/sketch -->
    <title>用户中心</title>
    <desc>Created with Sketch.</desc>
    <defs></defs>
    <g id="Page-1" stroke="none" stroke-width="1" fill="none" fill-rule="evenodd">
        <g id="Group-45" stroke="#0E80D3" stroke-width="0.2" fill="#0E80D3" fill-rule="nonzero">
            <g id="Group-50" transform="translate(3.500000, 3.000000)">
                <path d="M7.5,7.84918789 C9.3497054,7.84918789 10.8491879,6.3497054 10.8491879,4.5 C10.8491879,2.6502946 9.3497054,1.15081211 7.5,1.15081211 C5.6502946,1.15081211 4.15081211,2.6502946 4.15081211,4.5 C4.15081211,6.3497054 5.6502946,7.84918789 7.5,7.84918789 Z M7.5,9 C5.01471863,9 3,6.98528137 3,4.5 C3,2.01471863 5.01471863,0 7.5,0 C9.98528137,0 12,2.01471863 12,4.5 C12,6.98528137 9.98528137,9 7.5,9 Z" id="Oval-10"></path>
                <path d="M13.8444062,16 C13.8444062,12.2582509 11.0027665,9.2271686 7.5,9.2271686 C3.99723348,9.2271686 1.15559383,12.2582509 1.15559383,16 L0,16 C0,11.581722 3.35786438,8 7.5,8 C11.6421356,8 15,11.581722 15,16 L13.8444062,16 Z M15,16 L13.8444062,16 C13.8444062,12.2582509 11.0027665,9.2271686 7.5,9.2271686 C3.99723348,9.2271686 1.15559383,12.2582509 1.15559383,16 L0,16 C0,11.581722 3.35786438,8 7.5,8 C11.6421356,8 15,11.581722 15,16 Z" id="Combined-Shape"></path>
            </g>
        </g>
    </g>
</svg>